<svg width="20" height="18" viewBox="0 0 20 18" fill="none" xmlns="http://www.w3.org/2000/svg">
<path d="M6.44378 11.9298H6.4447C6.44546 11.9298 6.44623 11.9297 6.44699 11.9297H17.0703C17.3318 11.9297 17.5618 11.7562 17.6337 11.5047L19.9774 3.3016C20.0279 3.12475 19.9925 2.93463 19.8819 2.78784C19.7711 2.64105 19.5979 2.55469 19.4141 2.55469H5.09247L4.67361 0.669769C4.61395 0.401672 4.37622 0.210938 4.10156 0.210938H0.585937C0.262298 0.210938 0 0.473236 0 0.796875C0 1.12051 0.262298 1.38281 0.585937 1.38281H3.63159C3.70575 1.71683 5.63598 10.403 5.74707 10.9028C5.12436 11.1735 4.6875 11.7943 4.6875 12.5156C4.6875 13.4849 5.47607 14.2734 6.44531 14.2734H17.0703C17.3939 14.2734 17.6562 14.0111 17.6562 13.6875C17.6562 13.3639 17.3939 13.1016 17.0703 13.1016H6.44531C6.12228 13.1016 5.85937 12.8386 5.85937 12.5156C5.85937 12.193 6.12137 11.9306 6.44378 11.9298V11.9298ZM18.6372 3.72656L16.6283 10.7578H6.91528L5.35278 3.72656H18.6372Z" fill="black"/>
<path d="M5.85938 16.0312C5.85938 17.0005 6.64795 17.7891 7.61719 17.7891C8.58642 17.7891 9.375 17.0005 9.375 16.0312C9.375 15.062 8.58642 14.2734 7.61719 14.2734C6.64795 14.2734 5.85938 15.062 5.85938 16.0312ZM7.61719 15.4453C7.94021 15.4453 8.20312 15.7082 8.20312 16.0312C8.20312 16.3543 7.94021 16.6172 7.61719 16.6172C7.29416 16.6172 7.03125 16.3543 7.03125 16.0312C7.03125 15.7082 7.29416 15.4453 7.61719 15.4453Z" fill="black"/>
<path d="M14.1406 16.0312C14.1406 17.0005 14.9292 17.7891 15.8984 17.7891C16.8677 17.7891 17.6562 17.0005 17.6562 16.0312C17.6562 15.062 16.8677 14.2734 15.8984 14.2734C14.9292 14.2734 14.1406 15.062 14.1406 16.0312ZM15.8984 15.4453C16.2215 15.4453 16.4844 15.7082 16.4844 16.0312C16.4844 16.3543 16.2215 16.6172 15.8984 16.6172C15.5754 16.6172 15.3125 16.3543 15.3125 16.0312C15.3125 15.7082 15.5754 15.4453 15.8984 15.4453Z" fill="black"/>
</svg>
