<svg width="21" height="21" fill="none" xmlns="http://www.w3.org/2000/svg"><path d="M.84.138C.564.193.257.475.158.766c-.069.202-.068.508.003.715.071.21.309.474.523.581.156.078.225.086.966.112.856.03.889.037 1.152.243.172.135.295.382.364.732.058.289 1.371 5.563 1.675 6.731.085.323.144.593.133.6a3.66 3.66 0 0 1-.323.069c-.788.147-1.365.488-1.934 1.141-.424.488-.687 1.23-.687 1.943 0 1.316.866 2.523 2.109 2.938.298.1.849.193 1.14.194.16 0 .183.008.167.061a3.265 3.265 0 0 0 .091 2.181 3.247 3.247 0 0 0 1.588 1.647c.46.208.715.258 1.31.255.486-.002.575-.012.858-.098a3.186 3.186 0 0 0 2.157-2.278c.121-.503.096-1.2-.061-1.707-.018-.057.055-.061 1.194-.061 1.138 0 1.211.004 1.193.061a3.368 3.368 0 0 0 .05 2.067 3.143 3.143 0 0 0 2.344 1.987 3.246 3.246 0 0 0 1.509-.089c.566-.189 1-.468 1.378-.884.749-.825.999-1.989.662-3.081-.015-.05.003-.061.1-.061.179 0 .479-.1.648-.217.638-.438.558-1.409-.145-1.768l-.179-.092-7.543-.025c-5.672-.019-7.576-.035-7.677-.067-.189-.058-.43-.293-.556-.542-.099-.196-.105-.228-.085-.48.025-.325.078-.464.253-.657.151-.167.222-.211.418-.258.083-.019 2.463-.043 5.88-.058l5.74-.024.293-.077c.788-.205 1.483-.69 1.91-1.333.232-.349.302-.543.594-1.655.96-3.653 1.56-6.103 1.56-6.37-.001-.349-.22-.677-.57-.855l-.177-.089-7.57-.02-7.569-.019-.078-.191C4.59 1.04 3.556.254 2.562.14 2.223.102 1.03.1.84.138m17.655 4.17c.022.022-1.066 4.398-1.295 5.211-.13.462-.138.477-.328.671-.121.123-.248.216-.334.244-.112.036-1.093.048-4.765.057l-4.624.012-.772-3.09-.772-3.09.111-.023c.139-.029 12.75-.02 12.779.008M8.873 16.879c.208.107.365.266.475.481.115.224.117.654.005.865a1.12 1.12 0 0 1-.469.484c-.163.091-.221.103-.466.103-.324-.001-.491-.07-.718-.297-.23-.23-.297-.394-.294-.717.002-.23.019-.313.094-.46.109-.213.358-.443.561-.518.22-.081.592-.054.812.059m8.323-.009c.197.099.426.334.504.518.034.079.057.239.059.41.004.331-.067.495-.315.736-.517.502-1.353.322-1.647-.354a1.047 1.047 0 0 1-.059-.4c.001-.371.133-.613.478-.874.205-.155.706-.174.98-.036" fill="#292A33" fill-rule="evenodd"/></svg>