<svg width="20" height="20" viewBox="0 0 20 20" fill="none" xmlns="http://www.w3.org/2000/svg">
<path d="M10.4145 9.74807V0.562149C10.4145 0.249844 10.1647 0 9.85238 0C9.54008 0 9.29024 0.249844 9.29024 0.562149V9.74807C7.98688 10.0104 7 11.1639 7 12.5463C7 13.9288 7.98688 15.0822 9.29024 15.3446V19.4337C9.29024 19.746 9.54008 19.9958 9.85238 19.9958C10.1647 19.9958 10.4145 19.746 10.4145 19.4337V15.3446C11.7179 15.0822 12.7048 13.9288 12.7048 12.5463C12.7048 11.168 11.722 10.0104 10.4145 9.74807ZM9.85238 14.2744C8.89881 14.2744 8.1243 13.4999 8.1243 12.5463C8.1243 11.5928 8.89881 10.8182 9.85238 10.8182C10.806 10.8182 11.5805 11.5928 11.5805 12.5463C11.5805 13.4999 10.806 14.2744 9.85238 14.2744Z" fill="black"/>
<path d="M3.4145 5.03435V0.562149C3.4145 0.249844 3.16466 0 2.85235 0C2.54005 0 2.2902 0.249844 2.2902 0.562149V5.03435C0.986853 5.29669 -3.05176e-05 6.45014 -3.05176e-05 7.8326C-3.05176e-05 9.21507 0.986853 10.3685 2.2902 10.6309V19.4337C2.2902 19.746 2.54005 19.9958 2.85235 19.9958C3.16466 19.9958 3.4145 19.746 3.4145 19.4337V10.6267C4.71785 10.3644 5.70474 9.21091 5.70474 7.82844C5.70474 6.44597 4.71785 5.29669 3.4145 5.03435ZM2.85235 9.56069C1.89878 9.56069 1.12427 8.78618 1.12427 7.8326C1.12427 6.87903 1.89878 6.10452 2.85235 6.10452C3.80592 6.10452 4.58044 6.87903 4.58044 7.8326C4.58044 8.78618 3.80176 9.56069 2.85235 9.56069Z" fill="black"/>
<path d="M17.1393 5.03435V0.562149C17.1393 0.249844 16.8894 0 16.5771 0C16.2648 0 16.015 0.249844 16.015 0.562149V5.03435C14.7116 5.29669 13.7247 6.45014 13.7247 7.83261C13.7247 9.21507 14.7116 10.3685 16.015 10.6309V19.4379C16.015 19.7502 16.2648 20 16.5771 20C16.8894 20 17.1393 19.7502 17.1393 19.4379V10.6267C18.4426 10.3644 19.4295 9.21091 19.4295 7.82844C19.4295 6.44597 18.4468 5.29669 17.1393 5.03435ZM16.5771 9.56069C15.6235 9.56069 14.849 8.78618 14.849 7.83261C14.849 6.87903 15.6235 6.10452 16.5771 6.10452C17.5307 6.10452 18.3052 6.87903 18.3052 7.83261C18.3052 8.78618 17.5307 9.56069 16.5771 9.56069Z" fill="black"/>
</svg>
