<svg width="21" height="21" fill="none" xmlns="http://www.w3.org/2000/svg"><path d="M9.45.174a6.26 6.26 0 0 0-3.377 1.769 5.448 5.448 0 0 0-1.138 1.575c-.708 1.417-.869 2.929-.47 4.416a6.55 6.55 0 0 0 1.873 3.054l.281.256-.329.151c-1.261.58-2.165 1.208-3.142 2.184-1.213 1.21-1.972 2.435-2.514 4.055-.252.754-.466 1.754-.472 2.211-.003.22.012.294.093.461.188.383.535.604.953.605a.914.914 0 0 0 .711-.299c.204-.204.27-.379.39-1.034.187-1.023.379-1.61.789-2.413.838-1.641 2.128-2.918 3.745-3.706 1.364-.666 2.723-.93 4.252-.828.637.043.956.092 1.502.231 1.498.38 3.078 1.329 4.073 2.447 1.143 1.284 1.791 2.651 2.09 4.414.094.552.126.632.334.855.311.333.804.426 1.193.227.232-.118.479-.395.536-.6.156-.564-.235-2.279-.817-3.578a10.43 10.43 0 0 0-3.661-4.325c-.431-.286-1.471-.857-1.792-.984l-.165-.065.41-.403c1.387-1.363 2.076-3.143 1.928-4.984-.225-2.799-2.222-5.064-4.987-5.657C11.221.098 9.966.079 9.45.174m1.472 2.046c.63.031 1.26.251 1.861.649a4.09 4.09 0 0 1 1.446 1.662c.313.645.374.903.392 1.657.017.694-.009.936-.152 1.39-.451 1.438-1.647 2.509-3.171 2.84-.398.086-1.193.085-1.603-.002-1.689-.36-2.952-1.635-3.279-3.309-.079-.407-.079-1.148.001-1.552.165-.835.501-1.475 1.102-2.097a4.313 4.313 0 0 1 1.879-1.132c.299-.087.822-.153 1.05-.133.057.005.271.017.474.027" fill="#292A33" fill-rule="evenodd"/></svg>