<svg width="21" height="21" fill="none" xmlns="http://www.w3.org/2000/svg"><path d="m8.365.127-.35.051c-.407.058-1.199.257-1.662.417-.56.193-1.585.702-2.083 1.033C2.043 3.11.633 5.31.173 8.018c-.147.868-.124 2.263.052 3.149a9.603 9.603 0 0 0 1.89 4.11 11.72 11.72 0 0 0 1.455 1.466 9.62 9.62 0 0 0 4.396 1.954c.618.107 2.195.117 2.797.017 1.65-.275 2.997-.822 4.193-1.704l.344-.254 1.844 1.835c1.014 1.009 1.93 1.907 2.036 1.995.303.252.399.291.7.286.314-.005.47-.065.69-.267.203-.186.291-.383.315-.707.017-.217.008-.28-.056-.413-.105-.217-.557-.689-2.447-2.562l-1.631-1.616.233-.312c.867-1.161 1.472-2.634 1.726-4.204.075-.464.106-1.782.053-2.292a9.392 9.392 0 0 0-6.74-8.06 8.852 8.852 0 0 0-1.458-.298c-.304-.032-2.003-.043-2.2-.014m1.715 2.08a7.283 7.283 0 0 1 4.533 2.115 7.295 7.295 0 0 1 2.03 3.956c.076.444.105 1.419.056 1.907a7.336 7.336 0 0 1-3.238 5.357c-.898.596-2.007 1.005-3.136 1.157-.444.059-1.396.05-1.868-.018a7.3 7.3 0 0 1-4.119-2.05c-1.133-1.124-1.839-2.525-2.083-4.131-.081-.533-.081-1.55 0-2.082a7.585 7.585 0 0 1 1.45-3.43c.24-.315.895-.977 1.213-1.225 1.473-1.152 3.359-1.721 5.162-1.556" fill="#292A33" fill-rule="evenodd"/></svg>