<svg width="15" height="15" viewBox="0 0 15 15" fill="none" xmlns="http://www.w3.org/2000/svg">
<g id="calender / 24 / Outline">
<path id="Vector" d="M11.875 2.5H11.25V1.875C11.25 1.70924 11.1842 1.55027 11.0669 1.43306C10.9497 1.31585 10.7908 1.25 10.625 1.25C10.4592 1.25 10.3003 1.31585 10.1831 1.43306C10.0658 1.55027 10 1.70924 10 1.875V2.5H5V1.875C5 1.70924 4.93415 1.55027 4.81694 1.43306C4.69973 1.31585 4.54076 1.25 4.375 1.25C4.20924 1.25 4.05027 1.31585 3.93306 1.43306C3.81585 1.55027 3.75 1.70924 3.75 1.875V2.5H3.125C2.62772 2.5 2.15081 2.69754 1.79917 3.04917C1.44754 3.40081 1.25 3.87772 1.25 4.375V11.875C1.25 12.3723 1.44754 12.8492 1.79917 13.2008C2.15081 13.5525 2.62772 13.75 3.125 13.75H11.875C12.3723 13.75 12.8492 13.5525 13.2008 13.2008C13.5525 12.8492 13.75 12.3723 13.75 11.875V4.375C13.75 3.87772 13.5525 3.40081 13.2008 3.04917C12.8492 2.69754 12.3723 2.5 11.875 2.5ZM12.5 11.875C12.5 12.0408 12.4342 12.1997 12.3169 12.3169C12.1997 12.4342 12.0408 12.5 11.875 12.5H3.125C2.95924 12.5 2.80027 12.4342 2.68306 12.3169C2.56585 12.1997 2.5 12.0408 2.5 11.875V6.25H12.5V11.875ZM12.5 5H2.5V4.375C2.5 4.20924 2.56585 4.05027 2.68306 3.93306C2.80027 3.81585 2.95924 3.75 3.125 3.75H11.875C12.0408 3.75 12.1997 3.81585 12.3169 3.93306C12.4342 4.05027 12.5 4.20924 12.5 4.375V5Z" fill="#7F7F7F"/>
</g>
</svg>
